<svg id="Layer_1" data-name="Layer 1" xmlns="http://www.w3.org/2000/svg" viewBox="0 0 150 82.69"><defs><style>.cls-1{font-size:73.47px;font-family:Comfortaa-Bold, Comfortaa;font-weight:700;}.cls-1,.cls-7{fill:#206a5d;}.cls-2{fill:#4d887d;}.cls-3{fill:#79a69e;}.cls-4{fill:#ffb400;}.cls-5{fill:#10352e;}.cls-6{fill:#185046;}</style></defs><text class="cls-1" transform="translate(25.66 65.43) scale(0.98 1)">d<tspan class="cls-2" x="45.92" y="0">a</tspan><tspan class="cls-3" x="91.83" y="0">r</tspan></text><circle class="cls-4" cx="18.49" cy="29.95" r="7.5"/><rect class="cls-5" x="50" y="20" width="8" height="53" rx="4" transform="translate(58 84.41) rotate(180)"/><path class="cls-6" d="M4,11.41H4a4,4,0,0,1,4,4v22a4,4,0,0,1-4,4H0a0,0,0,0,1,0,0v-26a4,4,0,0,1,4-4Z"/><rect class="cls-6" x="13" y="38.41" width="11" height="26" rx="5.5"/><path class="cls-7" d="M65,9h0a4,4,0,0,1,4,4V39a0,0,0,0,1,0,0H65a4,4,0,0,1-4-4V13a4,4,0,0,1,4-4Z" transform="translate(-9 80.41) rotate(-90)"/></svg>